# MagicaVoxel @ Ephtracy

# group
o 

# material
mtllib TankSniperHead.mtl
usemtl palette

# normals
vn -1 0 0
vn 1 0 0
vn 0 0 1
vn 0 0 -1
vn 0 -1 0
vn 0 1 0

# texcoords
vt 0.970703 0.5
vt 0.974609 0.5
vt 0.982422 0.5
vt 0.986328 0.5

# verts
v -2.4 2.5 0.6
v -2.4 2.5 -0.1
v -2.4 3.2 0.6
v -2.4 3.2 -0.1
v -2.3 2.5 0.7
v -2.3 2.5 0.6
v -2.3 2.5 -0.1
v -2.3 2.5 -0.2
v -2.3 3.2 0.7
v -2.3 3.2 0.6
v -2.3 3.2 -0.1
v -2.3 3.2 -0.2
v -2.2 2.5 0.8
v -2.2 2.5 0.7
v -2.2 2.5 -0.2
v -2.2 2.5 -0.3
v -2.2 3.2 0.8
v -2.2 3.2 0.7
v -2.2 3.2 0.6
v -2.2 3.2 0.3
v -2.2 3.2 -0.2
v -2.2 3.2 -0.3
v -2.2 3.3 0.6
v -2.2 3.3 0.3
v -2.1 3.2 0.7
v -2.1 3.2 0.6
v -2.1 3.2 0.3
v -2.1 3.2 0.2
v -2.1 3.3 0.7
v -2.1 3.3 0.6
v -2.1 3.3 0.3
v -2.1 3.3 0.2
v 1.7 2.8 0.3
v 1.7 2.8 0.2
v 1.7 2.9 0.3
v 1.7 2.9 0.2
v 1.8 2.7 0.3
v 1.8 2.7 0.1
v 1.8 2.8 0.3
v 1.8 2.8 0.2
v 1.8 2.9 0.2
v 1.8 2.9 0.1
v -1.9 3.2 0.7
v -1.9 3.2 0.6
v -1.9 3.2 0.3
v -1.9 3.2 0.2
v -1.9 3.3 0.7
v -1.9 3.3 0.6
v -1.9 3.3 0.3
v -1.9 3.3 0.2
v -1.8 2.5 0.8
v -1.8 2.5 0.7
v -1.8 2.5 -0.2
v -1.8 2.5 -0.3
v -1.8 3.2 0.8
v -1.8 3.2 0.7
v -1.8 3.2 0.6
v -1.8 3.2 0.3
v -1.8 3.2 -0.2
v -1.8 3.2 -0.3
v -1.8 3.3 0.6
v -1.8 3.3 0.3
v -1.7 2.5 0.7
v -1.7 2.5 0.6
v -1.7 2.5 -0.1
v -1.7 2.5 -0.2
v -1.7 3.2 0.7
v -1.7 3.2 0.6
v -1.7 3.2 -0.1
v -1.7 3.2 -0.2
v -1.6 2.5 0.6
v -1.6 2.5 -0.1
v -1.6 2.6 0.3
v -1.6 2.6 0.1
v -1.6 2.7 0.4
v -1.6 2.7 0.3
v -1.6 2.7 0.1
v -1.6 2.7 0
v -1.6 2.9 0.4
v -1.6 2.9 0.3
v -1.6 2.9 0.1
v -1.6 2.9 0
v -1.6 3 0.3
v -1.6 3 0.1
v -1.6 3.2 0.6
v -1.6 3.2 -0.1
v 1.9 2.6 0.3
v 1.9 2.6 0.1
v 1.9 2.7 0.4
v 1.9 2.7 0.3
v 1.9 2.7 0.1
v 1.9 2.7 0
v 1.9 2.9 0.4
v 1.9 2.9 0.3
v 1.9 2.9 0.1
v 1.9 2.9 0
v 1.9 3 0.3
v 1.9 3 0.1
v -2.2 2.5 0.8
v -2.2 3.2 0.8
v -1.8 2.5 0.8
v -1.8 3.2 0.8
v -2.3 2.5 0.7
v -2.3 3.2 0.7
v -2.2 2.5 0.7
v -2.2 3.2 0.7
v -2.1 3.2 0.7
v -2.1 3.3 0.7
v -1.9 3.2 0.7
v -1.9 3.3 0.7
v -1.8 2.5 0.7
v -1.8 3.2 0.7
v -1.7 2.5 0.7
v -1.7 3.2 0.7
v -2.4 2.5 0.6
v -2.4 3.2 0.6
v -2.3 2.5 0.6
v -2.3 3.2 0.6
v -2.2 3.2 0.6
v -2.2 3.3 0.6
v -2.1 3.2 0.6
v -2.1 3.3 0.6
v -1.9 3.2 0.6
v -1.9 3.3 0.6
v -1.8 3.2 0.6
v -1.8 3.3 0.6
v -1.7 2.5 0.6
v -1.7 3.2 0.6
v -1.6 2.5 0.6
v -1.6 3.2 0.6
v -1.6 2.7 0.4
v -1.6 2.9 0.4
v 1.9 2.7 0.4
v 1.9 2.9 0.4
v -1.6 2.6 0.3
v -1.6 2.7 0.3
v -1.6 2.9 0.3
v -1.6 3 0.3
v 1.9 2.6 0.3
v 1.9 2.7 0.3
v 1.9 2.9 0.3
v 1.9 3 0.3
v -1.6 2.7 0.1
v -1.6 2.9 0.1
v 1.8 2.7 0.1
v 1.8 2.9 0.1
v -2.2 3.2 0.3
v -2.2 3.3 0.3
v -2.1 3.2 0.3
v -2.1 3.3 0.3
v -1.9 3.2 0.3
v -1.9 3.3 0.3
v -1.8 3.2 0.3
v -1.8 3.3 0.3
v -1.6 2.7 0.3
v -1.6 2.9 0.3
v 1.7 2.8 0.3
v 1.7 2.9 0.3
v 1.8 2.7 0.3
v 1.8 2.8 0.3
v -2.1 3.2 0.2
v -2.1 3.3 0.2
v -1.9 3.2 0.2
v -1.9 3.3 0.2
v 1.7 2.8 0.2
v 1.7 2.9 0.2
v 1.8 2.8 0.2
v 1.8 2.9 0.2
v -1.6 2.6 0.1
v -1.6 2.7 0.1
v -1.6 2.9 0.1
v -1.6 3 0.1
v 1.9 2.6 0.1
v 1.9 2.7 0.1
v 1.9 2.9 0.1
v 1.9 3 0.1
v -1.6 2.7 0
v -1.6 2.9 0
v 1.9 2.7 0
v 1.9 2.9 0
v -2.4 2.5 -0.1
v -2.4 3.2 -0.1
v -2.3 2.5 -0.1
v -2.3 3.2 -0.1
v -1.7 2.5 -0.1
v -1.7 3.2 -0.1
v -1.6 2.5 -0.1
v -1.6 3.2 -0.1
v -2.3 2.5 -0.2
v -2.3 3.2 -0.2
v -2.2 2.5 -0.2
v -2.2 3.2 -0.2
v -1.8 2.5 -0.2
v -1.8 3.2 -0.2
v -1.7 2.5 -0.2
v -1.7 3.2 -0.2
v -2.2 2.5 -0.3
v -2.2 3.2 -0.3
v -1.8 2.5 -0.3
v -1.8 3.2 -0.3
v -2.2 2.5 0.8
v -1.8 2.5 0.8
v -2.3 2.5 0.7
v -2.2 2.5 0.7
v -1.8 2.5 0.7
v -1.7 2.5 0.7
v -2.4 2.5 0.6
v -2.3 2.5 0.6
v -1.7 2.5 0.6
v -1.6 2.5 0.6
v -2.2 2.5 0.4
v -1.8 2.5 0.4
v -2.2 2.5 0
v -1.8 2.5 0
v -2.4 2.5 -0.1
v -2.3 2.5 -0.1
v -1.7 2.5 -0.1
v -1.6 2.5 -0.1
v -2.3 2.5 -0.2
v -2.2 2.5 -0.2
v -1.8 2.5 -0.2
v -1.7 2.5 -0.2
v -2.2 2.5 -0.3
v -1.8 2.5 -0.3
v -1.6 2.6 0.3
v 1.9 2.6 0.3
v -1.6 2.6 0.1
v 1.9 2.6 0.1
v -1.6 2.7 0.4
v 1.9 2.7 0.4
v -1.6 2.7 0.3
v 1.9 2.7 0.3
v -1.6 2.7 0.1
v 1.9 2.7 0.1
v -1.6 2.7 0
v 1.9 2.7 0
v 1.7 2.8 0.3
v 1.8 2.8 0.3
v 1.7 2.8 0.2
v 1.8 2.8 0.2
v -1.6 2.9 0.3
v 1.7 2.9 0.3
v 1.7 2.9 0.2
v 1.8 2.9 0.2
v -1.6 2.9 0.1
v 1.8 2.9 0.1
v -1.6 2.7 0.3
v 1.8 2.7 0.3
v -1.6 2.7 0.1
v 1.8 2.7 0.1
v -1.6 2.9 0.4
v 1.9 2.9 0.4
v -1.6 2.9 0.3
v 1.9 2.9 0.3
v -1.6 2.9 0.1
v 1.9 2.9 0.1
v -1.6 2.9 0
v 1.9 2.9 0
v -1.6 3 0.3
v 1.9 3 0.3
v -1.6 3 0.1
v 1.9 3 0.1
v -2.2 3.2 0.8
v -1.8 3.2 0.8
v -2.3 3.2 0.7
v -2.2 3.2 0.7
v -2.1 3.2 0.7
v -1.9 3.2 0.7
v -1.8 3.2 0.7
v -1.7 3.2 0.7
v -2.4 3.2 0.6
v -2.3 3.2 0.6
v -2.2 3.2 0.6
v -2.1 3.2 0.6
v -1.9 3.2 0.6
v -1.8 3.2 0.6
v -1.7 3.2 0.6
v -1.6 3.2 0.6
v -2.2 3.2 0.3
v -2.1 3.2 0.3
v -1.9 3.2 0.3
v -1.8 3.2 0.3
v -2.1 3.2 0.2
v -1.9 3.2 0.2
v -2.4 3.2 -0.1
v -2.3 3.2 -0.1
v -1.7 3.2 -0.1
v -1.6 3.2 -0.1
v -2.3 3.2 -0.2
v -2.2 3.2 -0.2
v -1.8 3.2 -0.2
v -1.7 3.2 -0.2
v -2.2 3.2 -0.3
v -1.8 3.2 -0.3
v -2.1 3.3 0.7
v -1.9 3.3 0.7
v -2.2 3.3 0.6
v -2.1 3.3 0.6
v -1.9 3.3 0.6
v -1.8 3.3 0.6
v -2.2 3.3 0.3
v -2.1 3.3 0.3
v -1.9 3.3 0.3
v -1.8 3.3 0.3
v -2.1 3.3 0.2
v -1.9 3.3 0.2

# faces
f 3/3/1 2/3/1 1/3/1
f 4/3/1 2/3/1 3/3/1
f 9/3/1 6/3/1 5/3/1
f 10/3/1 6/3/1 9/3/1
f 11/3/1 8/3/1 7/3/1
f 12/3/1 8/3/1 11/3/1
f 17/3/1 14/3/1 13/3/1
f 18/3/1 14/3/1 17/3/1
f 21/3/1 16/3/1 15/3/1
f 22/3/1 16/3/1 21/3/1
f 23/1/1 20/1/1 19/1/1
f 24/1/1 20/1/1 23/1/1
f 29/1/1 26/1/1 25/1/1
f 30/1/1 26/1/1 29/1/1
f 31/1/1 28/1/1 27/1/1
f 32/1/1 28/1/1 31/1/1
f 35/1/1 34/1/1 33/1/1
f 36/1/1 34/1/1 35/1/1
f 39/1/1 38/1/1 37/1/1
f 40/1/1 38/1/1 39/1/1
f 41/1/1 38/1/1 40/1/1
f 42/1/1 38/1/1 41/1/1
f 43/1/2 44/1/2 47/1/2
f 47/1/2 44/1/2 48/1/2
f 45/1/2 46/1/2 49/1/2
f 49/1/2 46/1/2 50/1/2
f 51/3/2 52/3/2 55/3/2
f 55/3/2 52/3/2 56/3/2
f 53/3/2 54/3/2 59/3/2
f 59/3/2 54/3/2 60/3/2
f 57/1/2 58/1/2 61/1/2
f 61/1/2 58/1/2 62/1/2
f 63/3/2 64/3/2 67/3/2
f 67/3/2 64/3/2 68/3/2
f 65/3/2 66/3/2 69/3/2
f 69/3/2 66/3/2 70/3/2
f 71/3/2 72/3/2 73/3/2
f 73/3/2 72/3/2 74/3/2
f 71/3/2 73/3/2 75/3/2
f 75/3/2 73/3/2 76/3/2
f 74/3/2 72/3/2 77/3/2
f 77/3/2 72/3/2 78/3/2
f 71/3/2 75/3/2 79/3/2
f 76/3/2 77/3/2 80/3/2
f 80/3/2 77/3/2 81/3/2
f 78/3/2 72/3/2 82/3/2
f 79/3/2 80/3/2 83/3/2
f 81/3/2 82/3/2 84/3/2
f 79/3/2 83/3/2 85/3/2
f 83/3/2 84/3/2 85/3/2
f 71/3/2 79/3/2 85/3/2
f 84/3/2 82/3/2 86/3/2
f 85/3/2 84/3/2 86/3/2
f 82/3/2 72/3/2 86/3/2
f 87/3/2 88/3/2 90/3/2
f 90/3/2 88/3/2 91/3/2
f 89/3/2 90/3/2 93/3/2
f 90/1/2 91/1/2 94/1/2
f 93/3/2 90/3/2 94/3/2
f 91/3/2 92/3/2 95/3/2
f 94/1/2 91/1/2 95/1/2
f 95/3/2 92/3/2 96/3/2
f 94/3/2 95/3/2 97/3/2
f 97/3/2 95/3/2 98/3/2
f 101/3/3 100/3/3 99/3/3
f 102/3/3 100/3/3 101/3/3
f 105/3/3 104/3/3 103/3/3
f 106/3/3 104/3/3 105/3/3
f 109/1/3 108/1/3 107/1/3
f 110/1/3 108/1/3 109/1/3
f 113/3/3 112/3/3 111/3/3
f 114/3/3 112/3/3 113/3/3
f 117/3/3 116/3/3 115/3/3
f 118/3/3 116/3/3 117/3/3
f 121/1/3 120/1/3 119/1/3
f 122/1/3 120/1/3 121/1/3
f 125/1/3 124/1/3 123/1/3
f 126/1/3 124/1/3 125/1/3
f 129/3/3 128/3/3 127/3/3
f 130/3/3 128/3/3 129/3/3
f 133/3/3 132/3/3 131/3/3
f 134/3/3 132/3/3 133/3/3
f 139/3/3 136/3/3 135/3/3
f 140/3/3 136/3/3 139/3/3
f 141/3/3 138/3/3 137/3/3
f 142/3/3 138/3/3 141/3/3
f 145/3/3 144/3/3 143/3/3
f 146/3/3 144/3/3 145/3/3
f 147/1/4 148/1/4 149/1/4
f 149/1/4 148/1/4 150/1/4
f 151/1/4 152/1/4 153/1/4
f 153/1/4 152/1/4 154/1/4
f 155/3/4 156/3/4 157/3/4
f 157/3/4 156/3/4 158/3/4
f 155/3/4 157/3/4 159/3/4
f 159/3/4 157/3/4 160/3/4
f 161/1/4 162/1/4 163/1/4
f 163/1/4 162/1/4 164/1/4
f 165/1/4 166/1/4 167/1/4
f 167/1/4 166/1/4 168/1/4
f 169/3/4 170/3/4 173/3/4
f 173/3/4 170/3/4 174/3/4
f 171/3/4 172/3/4 175/3/4
f 175/3/4 172/3/4 176/3/4
f 177/3/4 178/3/4 179/3/4
f 179/3/4 178/3/4 180/3/4
f 181/3/4 182/3/4 183/3/4
f 183/3/4 182/3/4 184/3/4
f 185/3/4 186/3/4 187/3/4
f 187/3/4 186/3/4 188/3/4
f 189/3/4 190/3/4 191/3/4
f 191/3/4 190/3/4 192/3/4
f 193/3/4 194/3/4 195/3/4
f 195/3/4 194/3/4 196/3/4
f 197/3/4 198/3/4 199/3/4
f 199/3/4 198/3/4 200/3/4
f 204/3/5 202/3/5 201/3/5
f 205/3/5 202/3/5 204/3/5
f 208/3/5 204/3/5 203/3/5
f 208/3/5 206/3/5 205/3/5
f 208/3/5 205/3/5 204/3/5
f 209/3/5 206/3/5 208/3/5
f 211/3/5 208/3/5 207/3/5
f 211/3/5 210/3/5 209/3/5
f 211/3/5 209/3/5 208/3/5
f 212/3/5 210/3/5 211/3/5
f 213/3/5 211/3/5 207/3/5
f 213/4/5 212/4/5 211/4/5
f 214/3/5 210/3/5 212/3/5
f 214/4/5 212/4/5 213/4/5
f 215/3/5 213/3/5 207/3/5
f 215/3/5 214/3/5 213/3/5
f 216/3/5 214/3/5 215/3/5
f 217/3/5 210/3/5 214/3/5
f 217/3/5 214/3/5 216/3/5
f 218/3/5 210/3/5 217/3/5
f 219/3/5 217/3/5 216/3/5
f 220/3/5 217/3/5 219/3/5
f 221/3/5 217/3/5 220/3/5
f 222/3/5 217/3/5 221/3/5
f 223/3/5 221/3/5 220/3/5
f 224/3/5 221/3/5 223/3/5
f 227/3/5 226/3/5 225/3/5
f 228/3/5 226/3/5 227/3/5
f 231/3/5 230/3/5 229/3/5
f 232/3/5 230/3/5 231/3/5
f 235/3/5 234/3/5 233/3/5
f 236/3/5 234/3/5 235/3/5
f 239/1/5 238/1/5 237/1/5
f 240/1/5 238/1/5 239/1/5
f 243/3/5 242/3/5 241/3/5
f 245/3/5 243/3/5 241/3/5
f 245/3/5 244/3/5 243/3/5
f 246/3/5 244/3/5 245/3/5
f 247/3/6 248/3/6 249/3/6
f 249/3/6 248/3/6 250/3/6
f 251/3/6 252/3/6 253/3/6
f 253/3/6 252/3/6 254/3/6
f 255/3/6 256/3/6 257/3/6
f 257/3/6 256/3/6 258/3/6
f 259/3/6 260/3/6 261/3/6
f 261/3/6 260/3/6 262/3/6
f 263/3/6 264/3/6 266/3/6
f 266/3/6 264/3/6 267/3/6
f 267/3/6 264/3/6 268/3/6
f 268/3/6 264/3/6 269/3/6
f 265/3/6 266/3/6 272/3/6
f 266/3/6 267/3/6 272/3/6
f 272/3/6 267/3/6 273/3/6
f 273/3/6 267/3/6 274/3/6
f 268/3/6 269/3/6 275/3/6
f 269/3/6 270/3/6 275/3/6
f 275/3/6 270/3/6 276/3/6
f 276/3/6 270/3/6 277/3/6
f 272/3/6 273/3/6 279/3/6
f 271/3/6 272/3/6 279/3/6
f 277/3/6 278/3/6 282/3/6
f 276/3/6 277/3/6 282/3/6
f 279/3/6 280/3/6 283/3/6
f 281/3/6 282/3/6 284/3/6
f 279/3/6 283/3/6 285/3/6
f 283/3/6 284/3/6 285/3/6
f 271/3/6 279/3/6 285/3/6
f 285/3/6 284/3/6 286/3/6
f 284/3/6 282/3/6 287/3/6
f 286/3/6 284/3/6 287/3/6
f 282/3/6 278/3/6 287/3/6
f 287/3/6 278/3/6 288/3/6
f 286/3/6 287/3/6 289/3/6
f 289/3/6 287/3/6 290/3/6
f 290/3/6 287/3/6 291/3/6
f 291/3/6 287/3/6 292/3/6
f 290/3/6 291/3/6 293/3/6
f 293/3/6 291/3/6 294/3/6
f 295/1/6 296/1/6 298/1/6
f 298/1/6 296/1/6 299/1/6
f 297/1/6 298/1/6 301/1/6
f 298/2/6 299/2/6 302/2/6
f 301/1/6 298/1/6 302/1/6
f 299/1/6 300/1/6 303/1/6
f 302/2/6 299/2/6 303/2/6
f 303/1/6 300/1/6 304/1/6
f 302/1/6 303/1/6 305/1/6
f 305/1/6 303/1/6 306/1/6
