# MagicaVoxel @ Ephtracy

# group
o 

# material
mtllib кактус 2 обычный.mtl
usemtl palette

# normals
vn -1 0 0
vn 1 0 0
vn 0 0 1
vn 0 0 -1
vn 0 -1 0
vn 0 1 0

# texcoords
vt 0.970703 0.5
vt 0.974609 0.5
vt 0.978516 0.5

# verts
v -0.6 1.7 0.2
v -0.6 1.7 -0.1
v -0.6 1.8 0.2
v -0.6 1.8 -0.1
v -0.5 1.8 0.1
v -0.5 1.8 -2.98023e-08
v -0.5 1.9 0.1
v -0.5 1.9 -2.98023e-08
v -0.4 1.5 0.2
v -0.4 1.5 -0.1
v -0.4 1.7 0.2
v -0.4 1.7 -0.1
v -0.3 1.4 0.2
v -0.3 1.4 -0.1
v -0.3 1.5 0.2
v -0.3 1.5 -0.1
v -0.2 1.9 -2.98023e-08
v -0.2 1.9 -0.1
v -0.2 2 -2.98023e-08
v -0.2 2 -0.1
v -0.0999999 0 0.2
v -0.0999999 0 -0.1
v -0.0999999 0.6 0.2
v -0.0999999 0.6 0.1
v -0.0999999 0.7 0.2
v -0.0999999 0.7 0.1
v -0.0999999 1.2 -2.98023e-08
v -0.0999999 1.2 -0.1
v -0.0999999 1.3 -2.98023e-08
v -0.0999999 1.3 -0.1
v -0.0999999 1.4 0.2
v -0.0999999 1.4 0.1
v -0.0999999 1.4 -0.1
v -0.0999999 1.6 0.2
v -0.0999999 1.6 -2.98023e-08
v -0.0999999 1.6 -0.1
v -0.0999999 1.9 -2.98023e-08
v -0.0999999 1.9 -0.1
v -0.0999999 2 0.2
v -0.0999999 2 -2.98023e-08
v 5.96046e-08 0 0.3
v 5.96046e-08 0 0.2
v 5.96046e-08 0 -0.1
v 5.96046e-08 0 -0.2
v 5.96046e-08 0.2 -0.1
v 5.96046e-08 0.2 -0.2
v 5.96046e-08 0.3 -0.1
v 5.96046e-08 0.3 -0.2
v 5.96046e-08 0.6 0.2
v 5.96046e-08 0.7 0.2
v 5.96046e-08 1 0.3
v 5.96046e-08 1 0.2
v 5.96046e-08 1.1 0.3
v 5.96046e-08 1.1 0.2
v 5.96046e-08 1.2 -0.1
v 5.96046e-08 1.3 -0.1
v 5.96046e-08 2 0.3
v 5.96046e-08 2 0.2
v 5.96046e-08 2 -0.1
v 5.96046e-08 2 -0.2
v 5.96046e-08 2.1 0.2
v 5.96046e-08 2.1 -0.1
v 0.1 2.1 0.1
v 0.1 2.1 -2.98023e-08
v 0.1 2.2 0.1
v 0.1 2.2 -2.98023e-08
v 0.7 1.9 0.2
v 0.7 1.9 -0.1
v 0.7 2 0.2
v 0.7 2 -0.1
v 0.8 2 0.2
v 0.8 2 -0.1
v 0.8 2.1 0.2
v 0.8 2.1 -0.1
v -0.4 1.8 0.1
v -0.4 1.8 -2.98023e-08
v -0.4 1.9 0.1
v -0.4 1.9 -2.98023e-08
v -0.3 1.7 0.2
v -0.3 1.7 -0.1
v -0.3 1.8 0.2
v -0.3 1.8 -0.1
v -0.2 1.6 0.2
v -0.2 1.6 -2.98023e-08
v -0.2 1.6 -0.1
v -0.2 1.7 0.2
v -0.2 1.7 -0.1
v 0.3 2.1 0.1
v 0.3 2.1 -2.98023e-08
v 0.3 2.2 0.1
v 0.3 2.2 -2.98023e-08
v 0.4 0 0.3
v 0.4 0 0.2
v 0.4 0 -0.1
v 0.4 0 -0.2
v 0.4 0.5 -0.1
v 0.4 0.5 -0.2
v 0.4 0.6 -0.1
v 0.4 0.6 -0.2
v 0.4 1 0.2
v 0.4 1.1 0.2
v 0.4 2 0.3
v 0.4 2 0.2
v 0.4 2 -0.1
v 0.4 2 -0.2
v 0.4 2.1 0.2
v 0.4 2.1 -0.1
v 0.5 0 0.2
v 0.5 0 -0.1
v 0.5 1 0.2
v 0.5 1 0.1
v 0.5 1.1 0.2
v 0.5 1.1 0.1
v 0.5 1.7 0.2
v 0.5 1.7 -0.1
v 0.5 1.9 0.2
v 0.5 1.9 -0.1
v 0.5 2 0.2
v 0.5 2 -0.1
v 0.9 1.7 0.2
v 0.9 1.7 -0.1
v 0.9 1.9 -2.98023e-08
v 0.9 1.9 -0.1
v 0.9 2 0.2
v 0.9 2 0.1
v 0.9 2 -2.98023e-08
v 0.9 2 -0.1
v 1 2 0.2
v 1 2 0.1
v 1 2 -0.1
v 1 2.1 0.2
v 1 2.1 0.1
v 1 2.1 -0.1
v 5.96046e-08 0 0.3
v 5.96046e-08 1 0.3
v 5.96046e-08 1.1 0.3
v 5.96046e-08 2 0.3
v 0.1 0.3 0.3
v 0.1 0.4 0.3
v 0.1 1 0.3
v 0.1 1.1 0.3
v 0.1 1.7 0.3
v 0.1 1.8 0.3
v 0.2 0.3 0.3
v 0.2 0.4 0.3
v 0.2 1.7 0.3
v 0.2 1.8 0.3
v 0.4 0 0.3
v 0.4 2 0.3
v -0.6 1.7 0.2
v -0.6 1.8 0.2
v -0.4 1.5 0.2
v -0.4 1.7 0.2
v -0.3 1.4 0.2
v -0.3 1.5 0.2
v -0.3 1.7 0.2
v -0.3 1.8 0.2
v -0.2 1.4 0.2
v -0.2 1.5 0.2
v -0.2 1.6 0.2
v -0.2 1.7 0.2
v -0.0999999 0 0.2
v -0.0999999 0.6 0.2
v -0.0999999 0.7 0.2
v -0.0999999 1.4 0.2
v -0.0999999 1.5 0.2
v -0.0999999 1.6 0.2
v -0.0999999 2 0.2
v 5.96046e-08 0 0.2
v 5.96046e-08 0.6 0.2
v 5.96046e-08 0.7 0.2
v 5.96046e-08 1 0.2
v 5.96046e-08 1.1 0.2
v 5.96046e-08 2 0.2
v 5.96046e-08 2.1 0.2
v 0.4 0 0.2
v 0.4 1 0.2
v 0.4 1.1 0.2
v 0.4 2 0.2
v 0.4 2.1 0.2
v 0.5 0 0.2
v 0.5 1 0.2
v 0.5 1.1 0.2
v 0.5 1.7 0.2
v 0.5 1.9 0.2
v 0.5 2 0.2
v 0.7 1.9 0.2
v 0.7 2 0.2
v 0.8 2 0.2
v 0.8 2.1 0.2
v 0.9 1.7 0.2
v 0.9 2 0.2
v 0.9 2.1 0.2
v 1 2 0.2
v 1 2.1 0.2
v -0.5 1.8 0.1
v -0.5 1.9 0.1
v -0.4 1.8 0.1
v -0.4 1.9 0.1
v 0.1 2.1 0.1
v 0.1 2.2 0.1
v 0.2 2.1 0.1
v 0.2 2.2 0.1
v 0.3 2.1 0.1
v 0.3 2.2 0.1
v -0.2 1.9 -2.98023e-08
v -0.2 2 -2.98023e-08
v -0.0999999 1.9 -2.98023e-08
v -0.0999999 2 -2.98023e-08
v -0.5 1.8 -2.98023e-08
v -0.5 1.9 -2.98023e-08
v -0.4 1.8 -2.98023e-08
v -0.4 1.9 -2.98023e-08
v 0.1 2.1 -2.98023e-08
v 0.1 2.2 -2.98023e-08
v 0.2 2.1 -2.98023e-08
v 0.2 2.2 -2.98023e-08
v 0.3 2.1 -2.98023e-08
v 0.3 2.2 -2.98023e-08
v -0.6 1.7 -0.1
v -0.6 1.8 -0.1
v -0.4 1.5 -0.1
v -0.4 1.7 -0.1
v -0.3 1.4 -0.1
v -0.3 1.5 -0.1
v -0.3 1.7 -0.1
v -0.3 1.8 -0.1
v -0.2 1.5 -0.1
v -0.2 1.6 -0.1
v -0.2 1.7 -0.1
v -0.2 1.9 -0.1
v -0.2 2 -0.1
v -0.0999999 0 -0.1
v -0.0999999 1.2 -0.1
v -0.0999999 1.3 -0.1
v -0.0999999 1.4 -0.1
v -0.0999999 1.5 -0.1
v -0.0999999 1.6 -0.1
v -0.0999999 1.9 -0.1
v 5.96046e-08 0 -0.1
v 5.96046e-08 0.2 -0.1
v 5.96046e-08 0.3 -0.1
v 5.96046e-08 1.2 -0.1
v 5.96046e-08 1.3 -0.1
v 5.96046e-08 2 -0.1
v 5.96046e-08 2.1 -0.1
v 0.4 0 -0.1
v 0.4 0.5 -0.1
v 0.4 0.6 -0.1
v 0.4 2 -0.1
v 0.4 2.1 -0.1
v 0.5 0 -0.1
v 0.5 1.7 -0.1
v 0.5 1.9 -0.1
v 0.5 2 -0.1
v 0.7 1.9 -0.1
v 0.7 2 -0.1
v 0.8 1.9 -0.1
v 0.8 2 -0.1
v 0.8 2.1 -0.1
v 0.9 1.7 -0.1
v 0.9 1.9 -0.1
v 0.9 2 -0.1
v 1 2 -0.1
v 1 2.1 -0.1
v 5.96046e-08 0 -0.2
v 5.96046e-08 0.2 -0.2
v 5.96046e-08 0.3 -0.2
v 5.96046e-08 2 -0.2
v 0.1 0.2 -0.2
v 0.1 0.3 -0.2
v 0.2 1 -0.2
v 0.2 1.1 -0.2
v 0.2 1.6 -0.2
v 0.2 1.7 -0.2
v 0.3 0.5 -0.2
v 0.3 0.6 -0.2
v 0.3 1 -0.2
v 0.3 1.1 -0.2
v 0.3 1.6 -0.2
v 0.3 1.7 -0.2
v 0.4 0 -0.2
v 0.4 0.5 -0.2
v 0.4 0.6 -0.2
v 0.4 2 -0.2
v 5.96046e-08 0 0.3
v 0.4 0 0.3
v -0.0999999 0 0.2
v 5.96046e-08 0 0.2
v 0.4 0 0.2
v 0.5 0 0.2
v -0.0999999 0 -0.1
v 5.96046e-08 0 -0.1
v 0.4 0 -0.1
v 0.5 0 -0.1
v 5.96046e-08 0 -0.2
v 0.4 0 -0.2
v -0.3 1.4 0.2
v -0.2 1.4 0.2
v -0.0999999 1.4 0.2
v -0.2 1.4 0.1
v -0.0999999 1.4 0.1
v -0.3 1.4 -0.1
v -0.0999999 1.4 -0.1
v -0.4 1.5 0.2
v -0.3 1.5 0.2
v -0.4 1.5 -0.1
v -0.3 1.5 -0.1
v -0.6 1.7 0.2
v -0.4 1.7 0.2
v 0.5 1.7 0.2
v 0.9 1.7 0.2
v -0.6 1.7 -0.1
v -0.4 1.7 -0.1
v 0.5 1.7 -0.1
v 0.9 1.7 -0.1
v -0.2 1.9 -2.98023e-08
v -0.0999999 1.9 -2.98023e-08
v -0.2 1.9 -0.1
v -0.0999999 1.9 -0.1
v 0.9 2 0.2
v 1 2 0.2
v 0.9 2 0.1
v 1 2 0.1
v 0.9 2 -2.98023e-08
v 0.9 2 -0.1
v 1 2 -0.1
v -0.2 1.6 0.2
v -0.0999999 1.6 0.2
v -0.2 1.6 -2.98023e-08
v -0.0999999 1.6 -2.98023e-08
v -0.2 1.6 -0.1
v -0.0999999 1.6 -0.1
v -0.3 1.7 0.2
v -0.2 1.7 0.2
v -0.3 1.7 -0.1
v -0.2 1.7 -0.1
v -0.6 1.8 0.2
v -0.3 1.8 0.2
v -0.5 1.8 0.1
v -0.4 1.8 0.1
v -0.5 1.8 -2.98023e-08
v -0.4 1.8 -2.98023e-08
v -0.6 1.8 -0.1
v -0.3 1.8 -0.1
v 0.5 1.9 0.2
v 0.7 1.9 0.2
v -0.5 1.9 0.1
v -0.4 1.9 0.1
v -0.5 1.9 -2.98023e-08
v -0.4 1.9 -2.98023e-08
v 0.5 1.9 -0.1
v 0.7 1.9 -0.1
v 5.96046e-08 2 0.3
v 0.4 2 0.3
v -0.0999999 2 0.2
v 5.96046e-08 2 0.2
v 0.4 2 0.2
v 0.5 2 0.2
v 0.7 2 0.2
v 0.8 2 0.2
v -0.2 2 -2.98023e-08
v -0.0999999 2 -2.98023e-08
v -0.2 2 -0.1
v 5.96046e-08 2 -0.1
v 0.4 2 -0.1
v 0.5 2 -0.1
v 0.7 2 -0.1
v 0.8 2 -0.1
v 5.96046e-08 2 -0.2
v 0.4 2 -0.2
v 5.96046e-08 2.1 0.2
v 0.4 2.1 0.2
v 0.8 2.1 0.2
v 0.9 2.1 0.2
v 1 2.1 0.2
v 0.1 2.1 0.1
v 0.2 2.1 0.1
v 0.3 2.1 0.1
v 0.9 2.1 0.1
v 1 2.1 0.1
v 0.1 2.1 -2.98023e-08
v 0.2 2.1 -2.98023e-08
v 0.3 2.1 -2.98023e-08
v 5.96046e-08 2.1 -0.1
v 0.4 2.1 -0.1
v 0.8 2.1 -0.1
v 1 2.1 -0.1
v 0.1 2.2 0.1
v 0.2 2.2 0.1
v 0.3 2.2 0.1
v 0.1 2.2 -2.98023e-08
v 0.2 2.2 -2.98023e-08
v 0.3 2.2 -2.98023e-08

# faces
f 3/1/1 2/1/1 1/1/1
f 4/1/1 2/1/1 3/1/1
f 7/1/1 6/1/1 5/1/1
f 8/1/1 6/1/1 7/1/1
f 11/1/1 10/1/1 9/1/1
f 12/1/1 10/1/1 11/1/1
f 15/1/1 14/1/1 13/1/1
f 16/1/1 14/1/1 15/1/1
f 19/1/1 18/1/1 17/1/1
f 20/1/1 18/1/1 19/1/1
f 23/1/1 22/1/1 21/1/1
f 24/1/1 22/1/1 23/1/1
f 25/3/1 24/3/1 23/3/1
f 26/1/1 22/1/1 24/1/1
f 26/3/1 24/3/1 25/3/1
f 27/1/1 26/1/1 25/1/1
f 27/1/1 22/1/1 26/1/1
f 28/1/1 22/1/1 27/1/1
f 29/1/1 27/1/1 25/1/1
f 29/3/1 28/3/1 27/3/1
f 30/3/1 28/3/1 29/3/1
f 31/1/1 29/1/1 25/1/1
f 31/1/1 30/1/1 29/1/1
f 32/1/1 30/1/1 31/1/1
f 33/1/1 30/1/1 32/1/1
f 37/1/1 35/1/1 34/1/1
f 37/1/1 36/1/1 35/1/1
f 38/1/1 36/1/1 37/1/1
f 39/1/1 37/1/1 34/1/1
f 40/1/1 37/1/1 39/1/1
f 45/1/1 44/1/1 43/1/1
f 46/1/1 44/1/1 45/1/1
f 47/3/1 46/3/1 45/3/1
f 48/3/1 46/3/1 47/3/1
f 49/1/1 42/1/1 41/1/1
f 50/1/1 49/1/1 41/1/1
f 51/1/1 50/1/1 41/1/1
f 52/1/1 50/1/1 51/1/1
f 53/3/1 52/3/1 51/3/1
f 54/3/1 52/3/1 53/3/1
f 55/1/1 48/1/1 47/1/1
f 56/1/1 48/1/1 55/1/1
f 57/1/1 54/1/1 53/1/1
f 58/1/1 54/1/1 57/1/1
f 59/1/1 48/1/1 56/1/1
f 60/1/1 48/1/1 59/1/1
f 61/1/1 59/1/1 58/1/1
f 62/1/1 59/1/1 61/1/1
f 65/1/1 64/1/1 63/1/1
f 66/1/1 64/1/1 65/1/1
f 69/1/1 68/1/1 67/1/1
f 70/1/1 68/1/1 69/1/1
f 73/1/1 72/1/1 71/1/1
f 74/1/1 72/1/1 73/1/1
f 75/1/2 76/1/2 77/1/2
f 77/1/2 76/1/2 78/1/2
f 79/1/2 80/1/2 81/1/2
f 81/1/2 80/1/2 82/1/2
f 83/1/2 84/1/2 86/1/2
f 84/1/2 85/1/2 86/1/2
f 86/1/2 85/1/2 87/1/2
f 88/3/2 89/3/2 90/3/2
f 90/3/2 89/3/2 91/3/2
f 94/1/2 95/1/2 96/1/2
f 96/1/2 95/1/2 97/1/2
f 96/3/2 97/3/2 98/3/2
f 98/3/2 97/3/2 99/3/2
f 92/1/2 93/1/2 100/1/2
f 92/1/2 100/1/2 101/1/2
f 92/1/2 101/1/2 102/1/2
f 102/1/2 101/1/2 103/1/2
f 98/1/2 99/1/2 104/1/2
f 104/1/2 99/1/2 105/1/2
f 103/1/2 104/1/2 106/1/2
f 106/1/2 104/1/2 107/1/2
f 108/1/2 109/1/2 110/1/2
f 110/1/2 109/1/2 111/1/2
f 110/3/2 111/3/2 112/3/2
f 111/1/2 109/1/2 113/1/2
f 112/3/2 111/3/2 113/3/2
f 112/1/2 113/1/2 114/1/2
f 113/1/2 109/1/2 115/1/2
f 114/1/2 113/1/2 115/1/2
f 116/1/2 117/1/2 118/1/2
f 118/1/2 117/1/2 119/1/2
f 120/1/2 121/1/2 122/1/2
f 122/1/2 121/1/2 123/1/2
f 120/1/2 122/1/2 124/1/2
f 124/1/2 122/1/2 125/1/2
f 122/3/2 123/3/2 126/3/2
f 125/1/2 122/1/2 126/1/2
f 126/3/2 123/3/2 127/3/2
f 128/3/2 129/3/2 131/3/2
f 129/1/2 130/1/2 132/1/2
f 131/3/2 129/3/2 132/3/2
f 132/1/2 130/1/2 133/1/2
f 138/1/3 135/1/3 134/1/3
f 139/1/3 135/1/3 138/1/3
f 140/3/3 136/3/3 135/3/3
f 140/1/3 135/1/3 139/1/3
f 141/1/3 137/1/3 136/1/3
f 141/3/3 136/3/3 140/3/3
f 142/1/3 137/1/3 141/1/3
f 143/1/3 137/1/3 142/1/3
f 144/3/3 139/3/3 138/3/3
f 144/1/3 138/1/3 134/1/3
f 145/1/3 140/1/3 139/1/3
f 145/3/3 139/3/3 144/3/3
f 145/1/3 141/1/3 140/1/3
f 145/1/3 142/1/3 141/1/3
f 146/3/3 143/3/3 142/3/3
f 146/1/3 142/1/3 145/1/3
f 147/1/3 137/1/3 143/1/3
f 147/3/3 143/3/3 146/3/3
f 148/1/3 144/1/3 134/1/3
f 148/1/3 146/1/3 145/1/3
f 148/1/3 147/1/3 146/1/3
f 148/1/3 145/1/3 144/1/3
f 149/1/3 137/1/3 147/1/3
f 149/1/3 147/1/3 148/1/3
f 153/1/3 151/1/3 150/1/3
f 155/1/3 153/1/3 152/1/3
f 156/1/3 151/1/3 153/1/3
f 156/1/3 153/1/3 155/1/3
f 157/1/3 151/1/3 156/1/3
f 158/1/3 155/1/3 154/1/3
f 158/1/3 156/1/3 155/1/3
f 159/1/3 156/1/3 158/1/3
f 160/1/3 156/1/3 159/1/3
f 161/1/3 156/1/3 160/1/3
f 165/3/3 159/3/3 158/3/3
f 166/1/3 160/1/3 159/1/3
f 166/3/3 159/3/3 165/3/3
f 167/1/3 160/1/3 166/1/3
f 169/1/3 163/1/3 162/1/3
f 170/3/3 164/3/3 163/3/3
f 170/1/3 163/1/3 169/1/3
f 171/1/3 167/1/3 166/1/3
f 171/3/3 164/3/3 170/3/3
f 171/1/3 165/1/3 164/1/3
f 171/1/3 166/1/3 165/1/3
f 171/1/3 168/1/3 167/1/3
f 172/1/3 168/1/3 171/1/3
f 173/1/3 168/1/3 172/1/3
f 174/1/3 168/1/3 173/1/3
f 179/1/3 175/1/3 174/1/3
f 180/1/3 175/1/3 179/1/3
f 181/1/3 177/1/3 176/1/3
f 182/3/3 178/3/3 177/3/3
f 182/1/3 177/1/3 181/1/3
f 183/1/3 179/1/3 178/1/3
f 183/3/3 178/3/3 182/3/3
f 184/1/3 179/1/3 183/1/3
f 185/1/3 179/1/3 184/1/3
f 186/1/3 179/1/3 185/1/3
f 187/1/3 185/1/3 184/1/3
f 189/1/3 188/1/3 187/1/3
f 191/1/3 189/1/3 187/1/3
f 191/1/3 190/1/3 189/1/3
f 191/1/3 187/1/3 184/1/3
f 192/1/3 190/1/3 191/1/3
f 193/1/3 190/1/3 192/1/3
f 194/3/3 193/3/3 192/3/3
f 195/3/3 193/3/3 194/3/3
f 198/1/3 197/1/3 196/1/3
f 199/1/3 197/1/3 198/1/3
f 202/1/3 201/1/3 200/1/3
f 203/1/3 201/1/3 202/1/3
f 204/3/3 203/3/3 202/3/3
f 205/3/3 203/3/3 204/3/3
f 208/1/3 207/1/3 206/1/3
f 209/1/3 207/1/3 208/1/3
f 210/1/4 211/1/4 212/1/4
f 212/1/4 211/1/4 213/1/4
f 214/1/4 215/1/4 216/1/4
f 216/1/4 215/1/4 217/1/4
f 216/3/4 217/3/4 218/3/4
f 218/3/4 217/3/4 219/3/4
f 220/1/4 221/1/4 223/1/4
f 222/1/4 223/1/4 225/1/4
f 223/1/4 221/1/4 226/1/4
f 225/1/4 223/1/4 226/1/4
f 226/1/4 221/1/4 227/1/4
f 224/1/4 225/1/4 228/1/4
f 225/1/4 226/1/4 228/1/4
f 228/1/4 226/1/4 229/1/4
f 229/1/4 226/1/4 230/1/4
f 224/1/4 228/1/4 236/1/4
f 228/3/4 229/3/4 237/3/4
f 236/1/4 228/1/4 237/1/4
f 237/3/4 229/3/4 238/3/4
f 231/1/4 232/1/4 239/1/4
f 233/1/4 234/1/4 240/1/4
f 240/1/4 234/1/4 241/1/4
f 241/1/4 234/1/4 242/1/4
f 234/3/4 235/3/4 243/3/4
f 242/1/4 234/1/4 243/1/4
f 237/1/4 238/1/4 244/1/4
f 243/3/4 235/3/4 244/3/4
f 235/1/4 236/1/4 244/1/4
f 238/1/4 239/1/4 244/1/4
f 236/1/4 237/1/4 244/1/4
f 239/1/4 232/1/4 245/1/4
f 244/1/4 239/1/4 245/1/4
f 245/1/4 246/1/4 250/1/4
f 250/1/4 246/1/4 251/1/4
f 248/1/4 249/1/4 252/1/4
f 247/1/4 248/1/4 252/1/4
f 249/1/4 250/1/4 252/1/4
f 252/1/4 250/1/4 253/1/4
f 253/1/4 250/1/4 254/1/4
f 254/1/4 250/1/4 255/1/4
f 253/1/4 254/1/4 256/1/4
f 253/1/4 256/1/4 258/1/4
f 256/1/4 257/1/4 258/1/4
f 258/1/4 257/1/4 259/1/4
f 253/1/4 258/1/4 261/1/4
f 258/3/4 259/3/4 262/3/4
f 261/1/4 258/1/4 262/1/4
f 259/1/4 260/1/4 263/1/4
f 262/3/4 259/3/4 263/3/4
f 263/1/4 260/1/4 264/1/4
f 264/1/4 260/1/4 265/1/4
f 266/1/4 267/1/4 270/1/4
f 267/3/4 268/3/4 270/3/4
f 268/1/4 269/1/4 271/1/4
f 270/3/4 268/3/4 271/3/4
f 270/1/4 271/1/4 272/1/4
f 271/1/4 269/1/4 272/1/4
f 272/1/4 269/1/4 273/1/4
f 273/1/4 269/1/4 274/1/4
f 274/1/4 269/1/4 275/1/4
f 270/1/4 272/1/4 276/1/4
f 276/1/4 272/1/4 277/1/4
f 272/3/4 273/3/4 278/3/4
f 277/1/4 272/1/4 278/1/4
f 273/1/4 274/1/4 279/1/4
f 278/3/4 273/3/4 279/3/4
f 274/3/4 275/3/4 280/3/4
f 279/1/4 274/1/4 280/1/4
f 275/1/4 269/1/4 281/1/4
f 280/3/4 275/3/4 281/3/4
f 266/1/4 270/1/4 282/1/4
f 270/1/4 276/1/4 282/1/4
f 276/3/4 277/3/4 283/3/4
f 282/1/4 276/1/4 283/1/4
f 279/1/4 280/1/4 284/1/4
f 283/3/4 277/3/4 284/3/4
f 277/1/4 278/1/4 284/1/4
f 280/1/4 281/1/4 284/1/4
f 278/1/4 279/1/4 284/1/4
f 281/1/4 269/1/4 285/1/4
f 284/1/4 281/1/4 285/1/4
f 289/1/5 287/1/5 286/1/5
f 290/1/5 287/1/5 289/1/5
f 292/1/5 289/1/5 288/1/5
f 292/1/5 291/1/5 290/1/5
f 292/1/5 290/1/5 289/1/5
f 293/1/5 291/1/5 292/1/5
f 294/1/5 291/1/5 293/1/5
f 295/1/5 291/1/5 294/1/5
f 296/1/5 294/1/5 293/1/5
f 297/1/5 294/1/5 296/1/5
f 301/1/5 299/1/5 298/1/5
f 301/3/5 300/3/5 299/3/5
f 302/3/5 300/3/5 301/3/5
f 303/1/5 301/1/5 298/1/5
f 303/1/5 302/1/5 301/1/5
f 304/1/5 302/1/5 303/1/5
f 307/1/5 306/1/5 305/1/5
f 308/1/5 306/1/5 307/1/5
f 313/1/5 310/1/5 309/1/5
f 314/1/5 310/1/5 313/1/5
f 315/1/5 312/1/5 311/1/5
f 316/1/5 312/1/5 315/1/5
f 319/1/5 318/1/5 317/1/5
f 320/1/5 318/1/5 319/1/5
f 323/3/5 322/3/5 321/3/5
f 324/3/5 322/3/5 323/3/5
f 325/1/5 324/1/5 323/1/5
f 326/1/5 324/1/5 325/1/5
f 327/1/5 324/1/5 326/1/5
f 328/1/6 329/1/6 330/1/6
f 330/1/6 329/1/6 331/1/6
f 330/3/6 331/3/6 332/3/6
f 332/3/6 331/3/6 333/3/6
f 334/1/6 335/1/6 336/1/6
f 336/1/6 335/1/6 337/1/6
f 338/1/6 339/1/6 340/1/6
f 340/1/6 339/1/6 341/1/6
f 338/1/6 340/1/6 342/1/6
f 341/1/6 339/1/6 343/1/6
f 338/1/6 342/1/6 344/1/6
f 342/1/6 343/1/6 344/1/6
f 343/1/6 339/1/6 345/1/6
f 344/1/6 343/1/6 345/1/6
f 348/1/6 349/1/6 350/1/6
f 350/1/6 349/1/6 351/1/6
f 346/1/6 347/1/6 352/1/6
f 352/1/6 347/1/6 353/1/6
f 354/1/6 355/1/6 357/1/6
f 357/1/6 355/1/6 358/1/6
f 356/1/6 357/1/6 363/1/6
f 362/1/6 363/1/6 364/1/6
f 363/1/6 357/1/6 365/1/6
f 364/1/6 363/1/6 365/1/6
f 358/1/6 359/1/6 366/1/6
f 366/1/6 359/1/6 367/1/6
f 360/1/6 361/1/6 368/1/6
f 368/1/6 361/1/6 369/1/6
f 365/1/6 366/1/6 370/1/6
f 370/1/6 366/1/6 371/1/6
f 372/1/6 373/1/6 377/1/6
f 377/1/6 373/1/6 378/1/6
f 378/1/6 373/1/6 379/1/6
f 375/3/6 376/3/6 380/3/6
f 374/1/6 375/1/6 380/1/6
f 380/3/6 376/3/6 381/3/6
f 372/1/6 377/1/6 382/1/6
f 379/1/6 373/1/6 384/1/6
f 382/1/6 383/1/6 385/1/6
f 383/1/6 384/1/6 385/1/6
f 372/1/6 382/1/6 385/1/6
f 384/1/6 373/1/6 386/1/6
f 385/1/6 384/1/6 386/1/6
f 380/1/6 381/1/6 387/1/6
f 374/1/6 380/1/6 387/1/6
f 387/1/6 381/1/6 388/1/6
f 389/1/6 390/1/6 392/1/6
f 390/3/6 391/3/6 393/3/6
f 392/1/6 390/1/6 393/1/6
f 393/3/6 391/3/6 394/3/6
